<svg width="1200" height="720" viewBox="0 0 1200 720" fill="none" xmlns="http://www.w3.org/2000/svg">
  <rect width="1200" height="720" fill="#F8FAFC"/>
  <rect x="82" y="84" width="1036" height="552" rx="32" fill="#E0F2FE"/>
  <rect x="150" y="146" width="900" height="92" rx="22" fill="#FFFFFF"/>
  <rect x="150" y="282" width="210" height="210" rx="24" fill="#2563EB"/>
  <rect x="408" y="282" width="210" height="210" rx="24" fill="#10B981"/>
  <rect x="666" y="282" width="210" height="210" rx="24" fill="#0EA5E9"/>
  <rect x="924" y="282" width="126" height="210" rx="24" fill="#1E40AF"/>
  <path d="M215 390H300M473 390H558M731 390H816M970 390H1010" stroke="white" stroke-width="20" stroke-linecap="round"/>
  <path d="M360 388H408M618 388H666M876 388H924" stroke="#64748B" stroke-width="14" stroke-linecap="round"/>
  <rect x="150" y="532" width="340" height="24" rx="12" fill="#94A3B8"/>
  <rect x="520" y="532" width="220" height="24" rx="12" fill="#94A3B8"/>
</svg>
