<svg width="1200" height="720" viewBox="0 0 1200 720" fill="none" xmlns="http://www.w3.org/2000/svg">
  <rect width="1200" height="720" fill="#0F172A"/>
  <rect x="96" y="92" width="1008" height="536" rx="28" fill="#1E293B"/>
  <rect x="138" y="136" width="438" height="56" rx="10" fill="#2563EB"/>
  <rect x="138" y="224" width="924" height="68" rx="12" fill="#334155"/>
  <rect x="138" y="320" width="260" height="224" rx="18" fill="#0EA5E9"/>
  <rect x="430" y="320" width="260" height="224" rx="18" fill="#10B981"/>
  <rect x="722" y="320" width="340" height="224" rx="18" fill="#475569"/>
  <path d="M178 370H356M178 420H318M178 470H346" stroke="white" stroke-width="18" stroke-linecap="round" opacity=".82"/>
  <path d="M470 370H650M470 420H612M470 470H636" stroke="white" stroke-width="18" stroke-linecap="round" opacity=".82"/>
  <path d="M762 370H1018M762 420H958M762 470H996" stroke="white" stroke-width="18" stroke-linecap="round" opacity=".7"/>
  <rect x="138" y="570" width="286" height="18" rx="9" fill="#64748B"/>
  <rect x="462" y="570" width="190" height="18" rx="9" fill="#64748B"/>
</svg>
